<svg height="90" viewBox="0 0 156 90" width="156" xmlns="http://www.w3.org/2000/svg"><g fill="none"><path d="m.853 23.314 2.194-1.648v-19.145l-2.194-1.674v-.205h7.932c7.013 0 9.406 1.985 9.406 5.684 0 2.588-1.95 4.44-4.779 5.354 3.682.662 5.903 2.435 5.903 5.42 0 4.387-3.59 6.393-10.676 6.393h-7.786zm8.183-12.084c3.1 0 5.354-1.25 5.354-4.718 0-3.256-2.069-4.633-5.87-4.633h-1.856v9.351h2.373zm-2.373 1.125v9.986h2.407c4.436 0 6.445-1.522 6.445-4.996 0-3.196-1.824-5.023-5.87-5.023l-2.98.033zm22.409 11.138h-8.303v-.179l2.195-1.648v-19.145l-2.195-1.674v-.205h8.792c5.949 0 9.122 2.164 9.122 6.18 0 3.045-2.162 5.209-5.229 6.089l5.592 8.603 3.04 1.8v.179h-7.78v-.179l1.065-1.277-5.387-8.603h-3.405v8.232l2.493 1.648zm-2.493-21.647v10.416h2.526c3.648 0 5.87-1.37 5.87-5.294-.007-3.679-1.99-5.122-5.659-5.122h-2.736zm16.361 21.468 2.188-1.648v-19.145l-2.188-1.674v-.205h17.272v5.691h-.126l-3.708-4.42h-7.635v9.403h7.06l2.307-2.646h.126v6.823h-.133l-2.3-2.938h-7.06v9.721h7.933l3.74-4.5h.12v5.718h-17.596zm27.333.179h-6.505v-.179l2.433-1.8v-18.225l-3.014-2.442v-.205h5.288l12.962 16.094.727 1.125v-15.234l-2.703-1.78v-.205h6.716v.205l-2.644 1.827v20.819h-1.031l-14.966-18.477v16.498l2.737 1.8zm24.385 0h-6.505v-.179l2.433-1.8v-18.225l-3.008-2.442v-.205h5.255l12.99 16.074.726 1.125v-15.214l-2.703-1.78v-.205h6.716v.205l-2.644 1.827v20.819h-1.032l-14.965-18.477v16.498l2.737 1.8zm21.615 0h-7.199v-.179l2.644-1.826 7.087-19.192-.609-1.654h3.709l8.09 21.037 2.222 1.615v.179h-8.276v-.179l2.161-1.615-2.313-6.18h-8.455l-2.095 5.995 3.034 1.82zm3.193-19.51-3.65 10.285h7.517l-3.867-10.284zm19.942 19.51h-6.51v-.179l2.432-1.8v-18.225l-2.994-2.442v-.205h5.288l12.956 16.094.727 1.112v-15.22l-2.704-1.78v-.207h6.723v.205l-2.644 1.827v20.819h-1.031l-14.973-18.476v16.498l2.73 1.8z" fill="#fff"/><path d="m7.655 86.625h-6.849v-.146l1.759-1.323v-15.406l-1.759-1.324v-.145h13.961v4.58h-.119l-2.961-3.58h-6.214v7.788h5.48l1.858-2.13h.125v5.512h-.125l-1.858-2.383h-5.48v7.101l2.182 1.324zm8.143-9.06a9.317 9.317 0 0 1 2.705-6.808 9.295 9.295 0 0 1 6.788-2.74c5.208 0 9.439 3.771 9.439 9.323 0 6.075-4.667 9.53-9.486 9.53-5.34 0-9.446-3.819-9.446-9.305zm15.865.345c0-4.897-2.565-8.967-6.531-8.967-3.814 0-6.234 3.183-6.234 8.007 0 4.95 2.539 9.013 6.505 9.013 3.847 0 6.26-3.183 6.26-8.053zm10.45 8.715h-6.676v-.146l1.758-1.323v-15.406l-1.758-1.324v-.145h7.066c4.773 0 7.338 1.734 7.338 4.97 0 2.448-1.739 4.189-4.204 4.897l4.534 6.882 2.446 1.45v.145h-6.3v-.146l.86-1.032-4.33-6.929h-2.743v6.618l1.983 1.324zm-1.983-17.411v8.371h2.036c2.935 0 4.72-1.098 4.72-4.255 0-2.938-1.62-4.116-4.554-4.116zm17.22 20.177v-.172c1.884-.953 2.644-2.23 2.644-4.923v-14.56l-1.765-1.323v-.145h6.412v.145l-1.765 1.324v13.566c-.027 3.05-1.64 5.354-5.526 6.088zm10.59-9.132v-10.509l-1.759-1.324v-.145h6.55v.145l-1.883 1.324v10.628c0 4.533 2.472 5.46 5.09 5.46 1.93 0 5.09-.583 5.09-5.334v-10.628l-1.984-1.47v-.145h4.945v.146l-1.838 1.442v10.383c0 4.48-2.274 6.618-6.92 6.618-3.577.02-7.292-1.35-7.292-6.591zm17.265 6.194v-4.633h.126l3.08 3.646c.82.321 1.69.496 2.571.516 2.539 0 3.966-1.323 3.966-3.157 0-1.667-1.322-2.819-4.574-4.533-3.847-2.051-5.169-3.533-5.169-5.697 0-2.919 2.836-4.56 5.87-4.56a31.41 31.41 0 0 1 5.136.443v4.507h-.1l-3.152-3.772a8.095 8.095 0 0 0 -2.129-.271c-1.81 0-3.153.96-3.153 2.647 0 1.323.78 2.428 4.158 4.261 3.966 2.131 5.599 3.574 5.599 5.758 0 3.818-3.398 5.294-6.848 5.294-1.587-.033-3.86-.278-5.38-.45zm24.385.172h-6.432v-.146l1.759-1.323v-15.942h-3.253l-2.908 3.673h-.126v-4.633h15.462v4.633h-.1l-2.935-3.673h-3.225v15.942l1.758 1.323zm6.114-18.218v-.146h6.432v.146l-1.758 1.323v15.406l1.758 1.324v.145h-6.432v-.145l1.759-1.324v-15.386zm17.464 18.463c-5.162 0-9.882-3.428-9.882-9.55 0-6.12 5.546-9.304 10.173-9.304a14.08 14.08 0 0 1 5.897 1.171v4.07h-.1l-3.642-3.97a7.924 7.924 0 0 0 -2.327-.344c-3.966 0-6.92 3.21-6.92 8.252 0 4.725 2.545 8.768 6.993 8.768.773-.008 1.543-.09 2.3-.245l3.742-4.116h.099v4.116a15.393 15.393 0 0 1 -6.333 1.152zm8.336-.39 1.765-1.324v-15.406l-1.765-1.324v-.145h13.881v4.58h-.112l-2.981-3.58h-6.141v7.57h5.678l1.857-2.131h.1v5.486h-.1l-1.857-2.376h-5.678v7.835h6.359l3.007-3.626h.1v4.632h-14.113z" fill="#ed1c24"/><path d="m14.476 56.17c-7.562 0-14.476-5.021-14.476-13.99 0-9.072 8.13-13.625 14.9-13.625 2.969-.053 5.915.534 8.639 1.72v5.957h-.146l-5.34-5.81a11.622 11.622 0 0 0 -3.405-.497c-5.804 0-10.133 4.699-10.133 12.084 0 6.922 3.721 12.838 10.246 12.838a17.28 17.28 0 0 0 3.364-.357l5.48-6.022h.145v6.028a22.584 22.584 0 0 1 -9.274 1.675zm12.93-.602 2.578-1.932v-22.553l-2.578-1.985v-.212h20.346v6.73h-.139l-4.376-5.234h-8.99v11.084h8.316l2.717-3.104h.145v8.014h-.145l-2.717-3.474h-8.316v11.475h9.314l4.409-5.294h.145v6.73h-20.71zm32.204.245h-7.66v-.245l2.848-2.09v-21.483l-3.53-2.898v-.212h6.174l15.296 18.94.866 1.323v-17.906l-3.173-2.144v-.212h7.933v.212l-3.12 2.157v24.558h-1.217v-.04l-17.636-21.731v19.436l3.22 2.091zm37.295 0h-9.42v-.245l2.579-1.932v-23.327h-4.766l-4.264 5.406h-.178v-6.803h22.646v6.803h-.145l-4.27-5.406h-4.76v23.354l2.578 1.905zm9.677-.245 2.578-1.932v-22.553l-2.578-1.985v-.212h20.346v6.73h-.138l-4.376-5.234h-8.99v11.084h8.309l2.723-3.104h.146v8.014h-.146l-2.723-3.474h-8.31v11.475h9.315l4.409-5.294h.138v6.73h-20.703zm33.606.245h-9.783v-.245l2.578-1.932v-22.553l-2.578-1.985v-.212h10.326c6.986 0 10.748 2.548 10.748 7.28 0 3.586-2.539 6.134-6.161 7.173l6.61 10.112 3.583 2.117v.219h-9.162v-.219l1.256-1.502-6.346-10.151h-4.012v9.748l2.941 1.905zm-2.941-25.504v12.269h2.975c4.296 0 6.914-1.615 6.914-6.24 0-4.309-2.367-6.03-6.663-6.03h-3.226zm-136.447 30.917h154.731v1.462h-154.731z" fill="#fff"/></g></svg>