<svg width="66" height="47" viewBox="0 0 66 47" xmlns="http://www.w3.org/2000/svg"><g fill="none" fill-rule="evenodd"><path fill="#ED1C24" d="M0 46.558h65.001v-2.532H0z"/><path d="M.005 36.44l3.48-2.61V3.43L.005.773v-.29h12.614c11.116 0 14.934 3.093 14.934 8.988 0 4.11-3.094 7.057-7.588 8.507 5.848 1.064 9.376 3.866 9.376 8.603 0 6.96-5.703 10.15-16.964 10.15H.005v-.29zm13.001-19.235c4.929 0 8.505-1.982 8.505-7.492 0-5.17-3.286-7.345-9.327-7.345H9.236v14.837h3.77zm-3.77 1.788v15.9h3.818c7.056 0 10.246-2.416 10.246-7.926 0-5.074-2.9-7.974-9.328-7.974H9.236zm43.254 18.22c-10.199 0-19.526-6.766-19.526-18.848C32.964 6.138 43.934 0 53.07 0c3.914 0 8.216.677 11.647 2.319v8.024h-.193l-7.2-7.83a15.465 15.465 0 0 0-4.593-.677c-7.829 0-13.676 6.33-13.676 16.287 0 9.328 5.026 17.303 13.822 17.303 1.498 0 3.093-.194 4.543-.484l7.394-8.12.193.049v8.119c-3.77 1.692-8.023 2.223-12.517 2.223" fill="#FFF"/></g></svg>